<svg id="Слой_1" data-name="Слой 1" xmlns="http://www.w3.org/2000/svg" viewBox="0 0 60.53 83.77"><defs><style>.cls-1{fill:#ffc212;}</style></defs><title>document</title><path class="cls-1" d="M19.74,8.11V91.88H80.26V8.11ZM79.26,90.89H20.74V9.11H79.26V90.89Z" transform="translate(-19.74 -8.11)"/><path class="cls-1" d="M43.44,83.86,43,84l.26-.09a15.58,15.58,0,0,0,1.56-.71,9.42,9.42,0,0,0,1.44-1,.12.12,0,0,0,0-.1.13.13,0,0,0-.13-.13H44.8a4.91,4.91,0,0,0-.67.06l-.67.06c-.7.07-1.38.17-2.07.23A11.18,11.18,0,0,0,42,81.13a14.34,14.34,0,0,0,.81-2.66,6.55,6.55,0,0,0,.14-1.41,1.82,1.82,0,0,0-.52-1.44.87.87,0,0,0-.89-.11,1.8,1.8,0,0,0-.63.47,6,6,0,0,0-.8,1.18,20.3,20.3,0,0,0-1.16,2.51L38.42,81a3.62,3.62,0,0,1-.26.6l-.32.61c-.05.1-.11.19-.17.29h-.53c.15-.13.3-.28.44-.42s.29-.37.44-.55a.11.11,0,0,0,0-.08.14.14,0,0,0-.12-.16,2.22,2.22,0,0,0-.44-.06,1.87,1.87,0,0,0-.34,0,.19.19,0,0,0-.31-.11h0l-.24.24-.34.14a15.07,15.07,0,0,1-1.48.65,16.12,16.12,0,0,0-1.51.63,4.53,4.53,0,0,0-.72.39l-.68.5a.12.12,0,0,0-.06.12.71.71,0,0,0,0,.21,1,1,0,0,0,.13.16.15.15,0,0,0,.1,0h1a17.21,17.21,0,0,1-2.33.57,12.79,12.79,0,0,1-2.54.19,1.31,1.31,0,0,1,.16-.43,2.7,2.7,0,0,1,.33-.5,4.49,4.49,0,0,1,.92-.81A13.52,13.52,0,0,1,31.77,82c.76-.33,1.54-.63,2.32-.93a16.14,16.14,0,0,0,2.28-1,17.32,17.32,0,0,1-2.3,1c-.78.29-1.57.56-2.34.88a14.29,14.29,0,0,0-2.24,1.14,4.45,4.45,0,0,0-1,.82,2.51,2.51,0,0,0-.37.53,3.19,3.19,0,0,0-.23.61v0a.09.09,0,0,0,.09.09h0a15,15,0,0,0,5.39-.79l.93-.35c.33-.07.65-.16,1-.25v0c-.1.24-.19.49-.28.73s-.12.51-.18.77-.05.52-.07.79l.07.79a.24.24,0,0,0,.09.15.19.19,0,0,0,.27,0v0l1.56-2.25c.27-.37.51-.77.76-1.16.08-.12.14-.25.22-.37l.78-.15,1.06-.09.73.06-.14.22,0,0a.21.21,0,0,0,0,.25.21.21,0,0,0,.3,0l0,0h0a3.11,3.11,0,0,0,.69-.83c.76-.07,1.52-.2,2.28-.27l.66-.07a5.21,5.21,0,0,1,.67-.06l.92,0a9.16,9.16,0,0,1-1.06.69q-.75.39-1.53.72c-1,.43-2.11.78-3.18,1.12h0a.08.08,0,1,0,0,.15h0c.72-.22,1.44-.44,2.15-.69l1.28-.31,1.78-.26,1.8-.09-1.8,0Zm-4.88-2.1a4.63,4.63,0,0,0,.29-.65l.5-1.27a21.07,21.07,0,0,1,1.15-2.45,6,6,0,0,1,.74-1.07A1.61,1.61,0,0,1,41.7,76a.37.37,0,0,1,.4.06,1.43,1.43,0,0,1,.34,1,6.47,6.47,0,0,1-.13,1.31A13.64,13.64,0,0,1,41.55,81,12.36,12.36,0,0,1,41,82.18l-.12.21H40.8a12,12,0,0,1-1.33.06H38.18a.41.41,0,0,0,0-.09Zm-1.11,1.06-.06,0-1.07.28-.23.06.61-.4h.78ZM36,82.44h-.09l.17-.13a.57.57,0,0,0-.08.13Zm1.59-.94a1.48,1.48,0,0,1-.25.31,5.22,5.22,0,0,1-.48.46l-.25.17h-.18l.52-.87.15,0a1.18,1.18,0,0,1,.37,0A.48.48,0,0,1,37.6,81.5Zm-4.87,2a4.19,4.19,0,0,1,.69-.38c.46-.25,1-.42,1.48-.63.31-.12.63-.26.94-.4l-.5.42h0a.2.2,0,0,0-.06.13.18.18,0,0,0,.17.17h.4l-.15.29c-.28.16-.57.3-.86.43l-.61.16c-.35.06-.7.1-1.06.15h-.91Zm3.7,1-1.23,1.8,0-.18c0-.24,0-.49.06-.73s.1-.48.16-.71.17-.47.26-.7.1-.2.15-.3l.62-.15.74-.19v0C36.92,83.71,36.69,84.1,36.43,84.47Z" transform="translate(-19.74 -8.11)"/><path class="cls-1" d="M28.25,38.25h43.5a.38.38,0,1,0,0-.75H28.25a.38.38,0,0,0,0,.75Z" transform="translate(-19.74 -8.11)"/><path class="cls-1" d="M37.72,26.08H62.28a.38.38,0,0,0,0-.75H37.72a.38.38,0,0,0,0,.75Z" transform="translate(-19.74 -8.11)"/><path class="cls-1" d="M43.44,21.71H56.56a.38.38,0,1,0,0-.75H43.44a.38.38,0,1,0,0,.75Z" transform="translate(-19.74 -8.11)"/><path class="cls-1" d="M28.25,42.89h43.5a.38.38,0,1,0,0-.75H28.25a.38.38,0,0,0,0,.75Z" transform="translate(-19.74 -8.11)"/><path class="cls-1" d="M28.25,47.54h43.5a.38.38,0,0,0,.38-.38.37.37,0,0,0-.38-.37H28.25a.36.36,0,0,0-.37.37A.37.37,0,0,0,28.25,47.54Z" transform="translate(-19.74 -8.11)"/><path class="cls-1" d="M28.25,52.18h43.5a.38.38,0,1,0,0-.75H28.25a.38.38,0,0,0,0,.75Z" transform="translate(-19.74 -8.11)"/><path class="cls-1" d="M28.25,56.82h43.5a.38.38,0,1,0,0-.75H28.25a.38.38,0,0,0,0,.75Z" transform="translate(-19.74 -8.11)"/><path class="cls-1" d="M28.25,61.46h43.5a.37.37,0,0,0,.38-.37.38.38,0,0,0-.38-.38H28.25a.37.37,0,0,0-.37.38A.36.36,0,0,0,28.25,61.46Z" transform="translate(-19.74 -8.11)"/><path class="cls-1" d="M28.25,66.11h43.5a.38.38,0,0,0,.38-.38.37.37,0,0,0-.38-.37H28.25a.36.36,0,0,0-.37.37A.37.37,0,0,0,28.25,66.11Z" transform="translate(-19.74 -8.11)"/><path class="cls-1" d="M28.25,70.75h43.5a.38.38,0,1,0,0-.75H28.25a.38.38,0,0,0,0,.75Z" transform="translate(-19.74 -8.11)"/><path class="cls-1" d="M65.64,20.1l1,1,.73,1.31a.4.4,0,0,0,.26.18l1.39.27,1.36.62a.29.29,0,0,0,.16,0,.28.28,0,0,0,.15,0l1.28-.6,1.47-.29a.36.36,0,0,0,.25-.18l.68-1.24,1-1.1a.37.37,0,0,0,.1-.3l-.18-1.4.18-1.49a.37.37,0,0,0-.1-.3l-1-1-.74-1.31a.36.36,0,0,0-.25-.18L72,13.82l-1.36-.63a.42.42,0,0,0-.31,0l-1.28.6-1.47.3a.4.4,0,0,0-.26.18l-.68,1.24-1,1.1a.37.37,0,0,0-.1.3l.17,1.4-.17,1.49A.37.37,0,0,0,65.64,20.1ZM66.3,17l1-1,.64-1.15,1.39-.29L70.5,14l1.28.58,1.3.26.7,1.23.91,1-.16,1.41.15,1.32-1,1-.65,1.16-1.38.28-1.21.56-1.29-.58-1.3-.26-.7-1.23-.9-1,.16-1.4Z" transform="translate(-19.74 -8.11)"/><path class="cls-1" d="M73.33,83.06l-.34.07a1.29,1.29,0,0,1-.34,0h-.34L71.63,83l-1.32-.41a11,11,0,0,0-1.37-.34V82a.15.15,0,0,0,0-.07.17.17,0,0,0-.21-.08l-.71.34s0,0,0,0A.21.21,0,0,0,67.7,82h0c-.24.13-.47.27-.72.39l-.78.29a13.84,13.84,0,0,1-1.44.38l-.06-.17v0a.28.28,0,0,0-.24-.18h0a1.35,1.35,0,0,0,.25-.28,2.44,2.44,0,0,0,.11-.32v-.33a.21.21,0,0,0,0-.13.23.23,0,0,0-.31-.07l-.35.22a4,4,0,0,0-.28.3l-.18.38v0a1.37,1.37,0,0,1-.28,0v-.06a2,2,0,0,0,0-.24l0-.1a.08.08,0,0,0,0-.07.22.22,0,0,0-.25-.18,8,8,0,0,0-1.12.28l-.52.11h-.12l.07-.11.13-.2.14-.14,0,0a.22.22,0,0,0-.26-.35l-.87.48-.29.21,0-.16.32-.71a.18.18,0,0,0,0-.19.19.19,0,0,0-.27,0h0l-1,.73-.7.33c.11-.17.23-.33.33-.5l.38-.36.5-.63a.08.08,0,0,0,0-.11.08.08,0,0,0-.12,0l-.51.4-.4.48c-.13.2-.26.38-.39.57-.32.26-.64.51-1,.74.3-.18.58-.38.87-.58l-.19.26v0a.14.14,0,0,0,0,.14.14.14,0,0,0,.19.07l1.22-.52.5-.33-.05.1-.24.81a.17.17,0,0,0,0,.17.2.2,0,0,0,.28,0l0,0,.69-.5a0,0,0,0,1,0,0l0,.05a.15.15,0,0,0,0,.11.19.19,0,0,0,.2.21l.63,0,.58-.12.54-.15.15,0,0,.25v0h0A.25.25,0,0,0,63,83a2.16,2.16,0,0,0,.57,0,.17.17,0,0,0,.14.09l.57.05.12.3a.18.18,0,0,0,.21.11h0a16,16,0,0,0,1.68-.45l.56-.22a.18.18,0,0,0,0,.2.21.21,0,0,0,.28,0h0l.78-.57.64-.33v.62h0a.09.09,0,0,0,0,0,.15.15,0,0,0,.14.16A.15.15,0,0,0,68.9,83h0l.11-.36c.41.07.82.15,1.23.26s.9.24,1.36.33c.23,0,.47.07.7.08h.35a2,2,0,0,0,.35,0l.34-.1a1.35,1.35,0,0,0,.34-.11l.61-.34-.63.3A1.8,1.8,0,0,1,73.33,83.06Z" transform="translate(-19.74 -8.11)"/></svg>